<svg width="29" height="32" viewBox="0 0 29 32" fill="none" xmlns="http://www.w3.org/2000/svg">
<path d="M22.7707 26.8196C22.5503 26.8202 22.335 26.7536 22.1533 26.6285C21.9716 26.5033 21.8322 26.3257 21.7537 26.1192C21.6752 25.9127 21.6612 25.687 21.7137 25.4724C21.7661 25.2577 21.8825 25.0641 22.0474 24.9174C23.8512 23.3033 25.1235 21.1777 25.6958 18.8221C26.268 16.4665 26.1132 13.9921 25.2519 11.7268C24.3905 9.4614 22.8632 7.51195 20.8724 6.13666C18.8815 4.76136 16.5211 4.02514 14.1036 4.02551C13.1435 4.02636 12.1867 4.13834 11.2522 4.35923C10.9722 4.42445 10.6777 4.37542 10.4337 4.2229C10.1896 4.07039 10.016 3.82689 9.95095 3.54598C9.88592 3.26507 9.93481 2.96976 10.0869 2.725C10.2389 2.48024 10.4817 2.3061 10.7618 2.24087C11.8569 1.98113 12.9783 1.84967 14.1036 1.84912C16.9618 1.84755 19.7529 2.7173 22.107 4.34305C24.461 5.9688 26.2667 8.27376 27.2847 10.9523C28.3027 13.6309 28.485 16.5565 27.8072 19.3413C27.1294 22.1261 25.6237 24.6385 23.4897 26.5454C23.2917 26.7221 23.0358 26.8197 22.7707 26.8196Z" fill="currentColor"/>
<path d="M14.1044 30.1422C11.1974 30.1432 8.36103 29.243 5.98383 27.5648C3.60662 25.8866 1.80475 23.5124 0.824952 20.7674C-0.154846 18.0224 -0.264674 15.0408 0.510508 12.2307C1.28569 9.42072 2.90798 6.91969 5.15525 5.07015C5.96689 4.38735 6.85832 3.8061 7.80991 3.33919C8.06795 3.21326 8.36523 3.19498 8.63668 3.28836C8.90812 3.38173 9.13163 3.57916 9.25828 3.83743C9.38493 4.09569 9.40441 4.39376 9.31245 4.6664C9.22049 4.93903 9.02459 5.16403 8.76761 5.29214C7.97014 5.6837 7.22301 6.17091 6.54262 6.74307C4.44942 8.46536 3.00187 10.8499 2.43735 13.5056C1.87283 16.1614 2.22484 18.9307 3.43566 21.3595C4.64648 23.7882 6.64424 25.7322 9.10133 26.8727C11.5584 28.0132 14.329 28.2825 16.9587 27.6364C17.8137 27.4175 18.6426 27.1067 19.4311 26.7093C19.6875 26.5797 19.9846 26.5573 20.2573 26.647C20.5301 26.7367 20.7564 26.9311 20.8865 27.1877C21.0166 27.4444 21.0401 27.7423 20.9517 28.0162C20.8633 28.2901 20.6702 28.5177 20.4149 28.6492C19.4775 29.1225 18.4912 29.4913 17.4737 29.749C16.3697 30.0108 15.2389 30.1427 14.1044 30.1422Z" fill="currentColor"/>
<path d="M17.5346 17.4901C17.3107 17.4905 17.0921 17.4215 16.9089 17.2924C16.7256 17.1634 16.5867 16.9806 16.5111 16.7692C16.4355 16.5579 16.427 16.3282 16.4867 16.1118C16.5464 15.8953 16.6714 15.7027 16.8445 15.5603C17.6127 14.9364 18.1456 14.0682 18.3549 13.0992C18.5642 12.1303 18.4374 11.1187 17.9955 10.2319C17.5537 9.34502 16.8232 8.63602 15.9249 8.22218C15.0266 7.80834 14.0144 7.71444 13.0557 7.95603C12.7758 8.02356 12.4806 7.97681 12.2351 7.82607C11.9895 7.67532 11.8138 7.43293 11.7464 7.15221C11.6791 6.87149 11.7257 6.57544 11.876 6.32919C12.0263 6.08294 12.268 5.90666 12.5479 5.83912C13.9839 5.48273 15.4981 5.62748 16.8411 6.24954C18.1842 6.87159 19.2759 7.93385 19.9365 9.26136C20.5972 10.5889 20.7873 12.1024 20.4756 13.5528C20.1639 15.0032 19.369 16.3038 18.2218 17.2405C18.0287 17.4015 17.7857 17.4898 17.5346 17.4901Z" fill="currentColor"/>
<path d="M14.1039 18.709C13.7156 18.7106 13.328 18.6746 12.9465 18.6016L12.867 18.5914C12.1076 18.4507 11.3819 18.1661 10.7288 17.7528C9.76909 17.1801 8.97508 16.366 8.42526 15.3911C7.87543 14.4162 7.58884 13.3143 7.59381 12.1943C7.59381 11.9897 7.60973 11.7692 7.62709 11.5646C7.76746 10.0455 8.43691 8.62463 9.5179 7.55134C9.72358 7.35912 9.99563 7.25447 10.2767 7.25945C10.5578 7.26442 10.826 7.37863 11.0248 7.578C11.2236 7.77738 11.3375 8.04636 11.3424 8.32828C11.3474 8.61019 11.243 8.88303 11.0514 9.08932C10.3329 9.8015 9.88553 10.7434 9.78698 11.7518C9.77686 11.894 9.76384 12.0492 9.76384 12.1943C9.75961 12.9385 9.94918 13.6709 10.3138 14.319C10.6784 14.9672 11.2054 15.5086 11.8427 15.8898C12.2464 16.1488 12.6933 16.3327 13.1621 16.4325C13.2113 16.4325 13.2605 16.4455 13.3068 16.4557C13.7644 16.5503 14.2352 16.5621 14.697 16.4905C14.9806 16.4409 15.2722 16.5062 15.5076 16.6722C15.7431 16.8382 15.9032 17.0912 15.9527 17.3756C16.0022 17.6599 15.9371 17.9524 15.7716 18.1886C15.6061 18.4248 15.3538 18.5853 15.0703 18.635C14.7508 18.687 14.4275 18.7117 14.1039 18.709Z" fill="currentColor"/>
<path d="M21.3383 31.5931C21.1367 31.5931 20.9391 31.5368 20.7676 31.4304C20.5962 31.3241 20.4576 31.1719 20.3676 30.991L5.90077 1.97245C5.83581 1.84446 5.79676 1.70484 5.78586 1.56164C5.77496 1.41844 5.79244 1.2745 5.83727 1.1381C5.88211 1.00171 5.95342 0.875563 6.04709 0.766941C6.14077 0.65832 6.25496 0.569369 6.38307 0.505219C6.51119 0.441069 6.6507 0.402987 6.79356 0.39317C6.93642 0.383353 7.07981 0.401995 7.21545 0.448021C7.35109 0.494047 7.47631 0.566546 7.58388 0.661339C7.69145 0.756131 7.77925 0.871342 7.84222 1.00033L22.309 30.0189C22.4376 30.2771 22.4586 30.5759 22.3674 30.8497C22.2762 31.1234 22.0804 31.3496 21.823 31.4785C21.6726 31.5543 21.5066 31.5936 21.3383 31.5931Z" fill="currentColor"/>
<path d="M22.7699 26.8197C22.4907 26.8196 22.2223 26.7116 22.0205 26.5181C21.8187 26.3246 21.699 26.0606 21.6863 25.7808C21.629 24.5614 21.2778 23.3741 20.6628 22.3206C20.0478 21.2671 19.1873 20.3788 18.155 19.7319C17.9114 19.578 17.7387 19.3333 17.6749 19.0517C17.6111 18.7701 17.6615 18.4746 17.815 18.2302C17.9685 17.9859 18.2125 17.8127 18.4933 17.7487C18.7741 17.6848 19.0687 17.7353 19.3123 17.8892C20.6414 18.723 21.749 19.8675 22.5402 21.2248C23.3314 22.5821 23.7825 24.1116 23.8549 25.6822C23.8615 25.8249 23.84 25.9676 23.7916 26.102C23.7431 26.2364 23.6688 26.3599 23.5727 26.4654C23.4766 26.5709 23.3607 26.6564 23.2316 26.7169C23.1026 26.7775 22.9629 26.8119 22.8205 26.8183L22.7699 26.8197Z" fill="currentColor"/>
<path d="M5.43867 26.8197H5.38948C5.10214 26.8065 4.83176 26.6794 4.6378 26.4664C4.44383 26.2534 4.34215 25.9718 4.35511 25.6836C4.44996 23.6295 5.18815 21.6578 6.46471 20.0488C7.74126 18.4397 9.49117 17.2753 11.4655 16.7212C11.9286 16.5892 12.4019 16.4965 12.8804 16.4441C12.9168 16.4381 12.9535 16.4342 12.9903 16.4325C13.6454 16.3279 14.3122 16.3205 14.9694 16.4107C15.1087 16.4114 15.2465 16.4402 15.3744 16.4956C15.5024 16.5509 15.6178 16.6317 15.7139 16.7329C15.81 16.8341 15.8847 16.9538 15.9335 17.0846C15.9823 17.2155 16.0042 17.355 15.998 17.4946C15.9853 17.7886 15.8591 18.0662 15.6461 18.2687C15.4331 18.4712 15.15 18.5828 14.8566 18.5799C14.3286 18.5016 13.7918 18.506 13.2652 18.5929C13.214 18.6014 13.1623 18.6063 13.1104 18.6074C12.7528 18.6476 12.399 18.7175 12.0529 18.8164C10.5187 19.2473 9.1588 20.1522 8.1665 21.4024C7.17419 22.6526 6.59988 24.1846 6.52513 25.7808C6.51245 26.061 6.39237 26.3255 6.18993 26.5191C5.9875 26.7126 5.71836 26.8203 5.43867 26.8197Z" fill="currentColor"/>
</svg>
