<svg width="29" height="32" viewBox="0 0 29 32" fill="none" xmlns="http://www.w3.org/2000/svg">
<path d="M23.2487 27.1083C23.0284 27.1089 22.813 27.0424 22.6313 26.9177C22.4497 26.7929 22.3103 26.6158 22.2317 26.4099C22.1532 26.204 22.1392 25.979 22.1917 25.765C22.2442 25.5509 22.3606 25.3579 22.5254 25.2117C24.3292 23.6023 25.6015 21.4829 26.1738 19.1342C26.746 16.7855 26.5912 14.3184 25.7299 12.0596C24.8685 9.80092 23.3413 7.85717 21.3504 6.48591C19.3596 5.11465 16.9991 4.38058 14.5817 4.38096C13.6216 4.3818 12.6648 4.49345 11.7303 4.71369C11.4502 4.77873 11.1557 4.72983 10.9117 4.57776C10.6676 4.4257 10.494 4.18292 10.429 3.90283C10.3639 3.62274 10.4128 3.32829 10.5649 3.08425C10.717 2.84021 10.9598 2.66658 11.2398 2.60154C12.3349 2.34256 13.4564 2.21148 14.5817 2.21094C17.4398 2.20937 20.231 3.07657 22.585 4.69756C24.939 6.31855 26.7447 8.61675 27.7628 11.2875C28.7808 13.9582 28.963 16.8752 28.2852 19.6518C27.6075 22.4285 26.1018 24.9335 23.9678 26.8348C23.7697 27.0111 23.5138 27.1084 23.2487 27.1083Z" fill="#666666"/>
<path d="M14.5825 30.4212C11.6754 30.4223 8.83906 29.5247 6.46185 27.8514C4.08465 26.1781 2.28278 23.8109 1.30298 21.074C0.323181 18.337 0.213353 15.3641 0.988536 12.5623C1.76372 9.76049 3.38601 7.26679 5.63328 5.42266C6.44492 4.74187 7.33635 4.16232 8.28794 3.69678C8.54598 3.57121 8.84326 3.55299 9.1147 3.64609C9.38615 3.7392 9.60966 3.93605 9.73631 4.19356C9.86296 4.45107 9.88244 4.74826 9.79048 5.0201C9.69852 5.29194 9.50261 5.51627 9.24564 5.64401C8.44817 6.03442 7.70104 6.5202 7.02064 7.09068C4.92745 8.80794 3.4799 11.1855 2.91538 13.8335C2.35085 16.4814 2.70287 19.2426 3.91369 21.6643C5.12451 24.0859 7.12227 26.0242 9.57936 27.1614C12.0365 28.2985 14.807 28.567 17.4368 27.9228C18.2917 27.7046 19.1207 27.3946 19.9091 26.9984C20.1655 26.8692 20.4626 26.8469 20.7354 26.9363C21.0082 27.0257 21.2344 27.2196 21.3645 27.4755C21.4947 27.7313 21.5181 28.0284 21.4297 28.3015C21.3413 28.5746 21.1483 28.8015 20.8929 28.9326C19.9555 29.4045 18.9693 29.7722 17.9518 30.0292C16.8477 30.2902 15.717 30.4218 14.5825 30.4212Z" fill="#666666"/>
<path d="M18.0126 17.8065C17.7887 17.8069 17.5702 17.7381 17.3869 17.6094C17.2037 17.4807 17.0647 17.2985 16.9891 17.0877C16.9135 16.877 16.905 16.648 16.9647 16.4322C17.0244 16.2164 17.1494 16.0243 17.3226 15.8824C18.0908 15.2603 18.6236 14.3946 18.8329 13.4285C19.0422 12.4624 18.9154 11.4538 18.4736 10.5695C18.0317 9.68526 17.3012 8.97834 16.4029 8.56571C15.5046 8.15308 14.4924 8.05946 13.5337 8.30034C13.2538 8.36767 12.9586 8.32106 12.7131 8.17076C12.4676 8.02046 12.2918 7.77878 12.2245 7.49888C12.1571 7.21898 12.2037 6.9238 12.354 6.67827C12.5043 6.43274 12.746 6.25697 13.0259 6.18964C14.4619 5.83429 15.9761 5.97862 17.3192 6.59885C18.6622 7.21908 19.7539 8.27823 20.4145 9.60185C21.0752 10.9255 21.2653 12.4346 20.9536 13.8807C20.6419 15.3268 19.847 16.6237 18.6998 17.5576C18.5068 17.7182 18.2637 17.8062 18.0126 17.8065Z" fill="#666666"/>
<path d="M14.5819 19.0216C14.1936 19.0232 13.806 18.9874 13.4246 18.9146L13.345 18.9044C12.5856 18.7641 11.8599 18.4803 11.2068 18.0683C10.2471 17.4972 9.45311 16.6855 8.90328 15.7135C8.35346 14.7415 8.06687 13.6428 8.07184 12.526C8.07184 12.3221 8.08775 12.1022 8.10511 11.8982C8.24549 10.3836 8.91494 8.96682 9.99593 7.89667C10.2016 7.70502 10.4737 7.60068 10.7547 7.60564C11.0358 7.6106 11.304 7.72447 11.5028 7.92326C11.7016 8.12205 11.8155 8.39024 11.8204 8.67134C11.8254 8.95243 11.7211 9.22447 11.5294 9.43015C10.8109 10.1402 10.3636 11.0794 10.265 12.0848C10.2549 12.2266 10.2419 12.3814 10.2419 12.526C10.2376 13.268 10.4272 13.9983 10.7918 14.6445C11.1564 15.2908 11.6835 15.8307 12.3207 16.2107C12.7244 16.469 13.1714 16.6523 13.6401 16.7518C13.6893 16.7518 13.7385 16.7648 13.7848 16.7749C14.2424 16.8692 14.7133 16.881 15.1751 16.8097C15.4586 16.7602 15.7502 16.8253 15.9857 16.9908C16.2212 17.1563 16.3813 17.4086 16.4308 17.6921C16.4803 17.9757 16.4151 18.2673 16.2496 18.5027C16.0841 18.7382 15.8318 18.8983 15.5483 18.9478C15.2288 18.9997 14.9055 19.0244 14.5819 19.0216Z" fill="#666666"/>
<path d="M21.8163 31.8679C21.6147 31.8679 21.4171 31.8118 21.2457 31.7057C21.0742 31.5997 20.9357 31.4479 20.8456 31.2676L6.3788 2.33403C6.31384 2.20641 6.27479 2.0672 6.26389 1.92442C6.25299 1.78164 6.27046 1.63812 6.3153 1.50212C6.36013 1.36613 6.43144 1.24035 6.52512 1.13205C6.6188 1.02375 6.73298 0.935056 6.8611 0.871094C6.98922 0.807132 7.12873 0.769162 7.27159 0.759374C7.41445 0.749586 7.55783 0.768173 7.69348 0.814064C7.82912 0.859955 7.95434 0.932241 8.06191 1.02676C8.16948 1.12127 8.25728 1.23615 8.32025 1.36475L22.7871 30.2983C22.9156 30.5558 22.9366 30.8537 22.8454 31.1266C22.7543 31.3996 22.5584 31.6251 22.301 31.7537C22.1506 31.8292 21.9846 31.8684 21.8163 31.8679Z" fill="#666666"/>
<path d="M23.2479 27.1085C22.9687 27.1084 22.7003 27.0007 22.4985 26.8078C22.2967 26.6148 22.177 26.3516 22.1644 26.0727C22.1071 24.8568 21.7558 23.6729 21.1408 22.6225C20.5258 21.5721 19.6653 20.6865 18.633 20.0415C18.3894 19.888 18.2167 19.644 18.1529 19.3632C18.0892 19.0824 18.1396 18.7878 18.293 18.5441C18.4465 18.3005 18.6905 18.1278 18.9713 18.0641C19.2521 18.0003 19.5467 18.0507 19.7904 18.2042C21.1194 19.0355 22.2271 20.1767 23.0182 21.53C23.8094 22.8833 24.2605 24.4083 24.3329 25.9743C24.3396 26.1166 24.318 26.2588 24.2696 26.3928C24.2212 26.5268 24.1468 26.65 24.0507 26.7552C23.9546 26.8604 23.8387 26.9456 23.7097 27.006C23.5806 27.0664 23.4409 27.1007 23.2986 27.107L23.2479 27.1085Z" fill="#666666"/>
<path d="M5.9167 27.1083H5.86751C5.58016 27.0952 5.30979 26.9685 5.11582 26.7561C4.92186 26.5437 4.82018 26.2629 4.83313 25.9756C4.92799 23.9276 5.66618 21.9616 6.94273 20.3573C8.21929 18.7529 9.96919 17.592 11.9436 17.0395C12.4066 16.9078 12.8799 16.8154 13.3584 16.7631C13.3948 16.7571 13.4315 16.7533 13.4684 16.7516C14.1234 16.6473 14.7903 16.64 15.4474 16.7299C15.5868 16.7305 15.7245 16.7593 15.8525 16.8145C15.9804 16.8697 16.0959 16.9502 16.1919 17.0511C16.288 17.152 16.3627 17.2713 16.4115 17.4018C16.4603 17.5323 16.4823 17.6713 16.476 17.8105C16.4633 18.1037 16.3371 18.3805 16.1241 18.5824C15.9112 18.7843 15.6281 18.8956 15.3346 18.8927C14.8067 18.8146 14.2698 18.819 13.7432 18.9057C13.6921 18.9141 13.6403 18.919 13.5885 18.9201C13.2308 18.9602 12.8771 19.0299 12.5309 19.1285C10.9967 19.5582 9.63683 20.4604 8.64452 21.7069C7.65222 22.9535 7.0779 24.481 7.00316 26.0725C6.99048 26.3519 6.87039 26.6156 6.66796 26.8086C6.46553 27.0016 6.19639 27.109 5.9167 27.1083Z" fill="#666666"/>
</svg>
