<svg width="18" height="21" viewBox="0 0 18 21" fill="none" xmlns="http://www.w3.org/2000/svg">
<path d="M14.2176 13.6608C13.8097 11.2624 12.1328 9.29102 9.90515 8.46656C10.993 7.72047 11.7078 6.46782 11.7078 5.05095C11.7078 2.76945 9.85388 0.913086 7.57468 0.913086C5.29578 0.913086 3.44138 2.76945 3.44138 5.05095C3.44138 6.46782 4.15671 7.72078 5.24451 8.46656C2.6734 9.41766 0.835938 11.8967 0.835938 14.7969V17.5183H9.80551C9.93826 19.4253 11.5305 20.9359 13.4684 20.9359C15.4929 20.9359 17.1403 19.2867 17.1403 17.2598C17.1403 15.4898 15.884 14.0082 14.2176 13.6608ZM13.4684 19.7627C12.1769 19.7627 11.1114 18.7775 10.9817 17.5183C10.9727 17.4335 10.9684 17.3471 10.9684 17.2598C10.9684 16.9372 11.0297 16.6286 11.1414 16.3451C11.4684 15.5133 12.2281 14.8981 13.1414 14.7785C13.2485 14.7645 13.3575 14.757 13.4684 14.757C13.7649 14.757 14.0493 14.8089 14.3133 14.9041C15.2773 15.2516 15.9684 16.1766 15.9684 17.2598C15.9684 18.6399 14.8469 19.7627 13.4684 19.7627ZM4.61325 5.05095C4.61325 3.4164 5.94183 2.0863 7.57468 2.0863C9.20737 2.0863 10.5359 3.4164 10.5359 5.05095C10.5359 6.68566 9.20737 8.01576 7.57468 8.01576C5.94183 8.01576 4.61325 6.68566 4.61325 5.05095ZM2.00781 14.7969C2.00781 11.7239 4.50507 9.2238 7.57468 9.2238C10.2383 9.2238 12.4708 11.1063 13.0149 13.6119C11.5085 13.7984 10.282 14.9017 9.91125 16.3451H2.00781V14.7969Z" fill="currentColor"/>
<path d="M14.0542 16.6734V15.7544H12.8823V16.6734H11.9644V17.8466H12.8823V18.7656H14.0542V17.8466H14.9722V16.6734H14.0542Z" fill="currentColor"/>
</svg>