<svg fill="currentColor" xmlns="http://www.w3.org/2000/svg" viewBox="0 0 24 24" aria-hidden="true" class="icon ">
<path d="M5 21q-.825 0-1.413-.587Q3 19.825 3 19V5q0-.825.587-1.413Q4.175 3 5 3h14q.825 0 1.413.587Q21 4.175 21 5v14q0 .825-.587 1.413Q19.825 21 19 21Zm0-2h14V5H5zm3-2q.425 0 .713-.288Q9 16.425 9 16t-.287-.713T8 15t-.713.287Q7 15.575 7 16t.287.712Q7.575 17 8 17m0-4q.425 0 .713-.288Q9 12.425 9 12t-.287-.713T8 11t-.713.287Q7 11.575 7 12t.287.712Q7.575 13 8 13m0-4q.425 0 .713-.288Q9 8.425 9 8t-.287-.713Q8.425 7 8 7t-.713.287Q7 7.575 7 8t.287.712Q7.575 9 8 9m4 8h4q.425 0 .712-.288Q17 16.425 17 16t-.288-.713Q16.425 15 16 15h-4q-.425 0-.712.287Q11 15.575 11 16t.288.712T12 17m0-4h4q.425 0 .712-.288Q17 12.425 17 12t-.288-.713Q16.425 11 16 11h-4q-.425 0-.712.287Q11 11.575 11 12t.288.712T12 13m0-4h4q.425 0 .712-.288Q17 8.425 17 8t-.288-.713Q16.425 7 16 7h-4q-.425 0-.712.287Q11 7.575 11 8t.288.712Q11.575 9 12 9M5 19V5z">
</path>
</svg>