<svg width="51" height="51" viewBox="0 0 51 51" fill="none" xmlns="http://www.w3.org/2000/svg">
<g id="XCircle" clip-path="url(#clip0_2929_9848)">
<path id="Vector" d="M25.5 47.8125C19.5824 47.8125 13.9071 45.4617 9.72268 41.2773C5.53827 37.0929 3.1875 31.4176 3.1875 25.5C3.1875 19.5824 5.53827 13.9071 9.72268 9.72268C13.9071 5.53827 19.5824 3.1875 25.5 3.1875C31.4176 3.1875 37.0929 5.53827 41.2773 9.72268C45.4617 13.9071 47.8125 19.5824 47.8125 25.5C47.8125 31.4176 45.4617 37.0929 41.2773 41.2773C37.0929 45.4617 31.4176 47.8125 25.5 47.8125ZM25.5 51C32.263 51 38.749 48.3134 43.5312 43.5312C48.3134 38.749 51 32.263 51 25.5C51 18.737 48.3134 12.251 43.5312 7.46878C38.749 2.6866 32.263 0 25.5 0C18.737 0 12.251 2.6866 7.46878 7.46878C2.6866 12.251 0 18.737 0 25.5C0 32.263 2.6866 38.749 7.46878 43.5312C12.251 48.3134 18.737 51 25.5 51Z" fill="#1A1A1A"/>
<path id="Vector_2" d="M14.809 14.8091C14.9571 14.6607 15.133 14.543 15.3266 14.4626C15.5202 14.3823 15.7278 14.3409 15.9374 14.3409C16.1471 14.3409 16.3546 14.3823 16.5483 14.4626C16.7419 14.543 16.9177 14.6607 17.0658 14.8091L25.4999 23.2464L33.934 14.8091C34.0822 14.661 34.2581 14.5434 34.4517 14.4632C34.6454 14.383 34.8529 14.3417 35.0624 14.3417C35.272 14.3417 35.4795 14.383 35.6731 14.4632C35.8667 14.5434 36.0426 14.661 36.1908 14.8091C36.339 14.9573 36.4565 15.1332 36.5367 15.3268C36.6169 15.5204 36.6582 15.728 36.6582 15.9375C36.6582 16.1471 36.6169 16.3546 36.5367 16.5482C36.4565 16.7418 36.339 16.9177 36.1908 17.0659L27.7535 25.5L36.1908 33.9341C36.339 34.0823 36.4565 34.2582 36.5367 34.4518C36.6169 34.6454 36.6582 34.853 36.6582 35.0625C36.6582 35.2721 36.6169 35.4796 36.5367 35.6732C36.4565 35.8668 36.339 36.0427 36.1908 36.1909C36.0426 36.3391 35.8667 36.4566 35.6731 36.5368C35.4795 36.617 35.272 36.6583 35.0624 36.6583C34.8529 36.6583 34.6454 36.617 34.4517 36.5368C34.2581 36.4566 34.0822 36.3391 33.934 36.1909L25.4999 27.7536L17.0658 36.1909C16.9176 36.3391 16.7417 36.4566 16.5481 36.5368C16.3545 36.617 16.147 36.6583 15.9374 36.6583C15.7279 36.6583 15.5204 36.617 15.3267 36.5368C15.1331 36.4566 14.9572 36.3391 14.809 36.1909C14.6609 36.0427 14.5433 35.8668 14.4631 35.6732C14.3829 35.4796 14.3417 35.2721 14.3417 35.0625C14.3417 34.853 14.3829 34.6454 14.4631 34.4518C14.5433 34.2582 14.6609 34.0823 14.809 33.9341L23.2464 25.5L14.809 17.0659C14.6606 16.9178 14.5429 16.742 14.4625 16.5483C14.3822 16.3547 14.3408 16.1471 14.3408 15.9375C14.3408 15.7279 14.3822 15.5203 14.4625 15.3267C14.5429 15.1331 14.6606 14.9572 14.809 14.8091Z" fill="currentColor"/>
</g>
<defs>
<clipPath id="clip0_2929_9848">
<rect width="51" height="51" fill="white"/>
</clipPath>
</defs>
</svg>
