<svg width="45" height="45" viewBox="0 0 45 45" fill="none" xmlns="http://www.w3.org/2000/svg">
<g id="X">
<path id="Vector" d="M13.0689 13.0669C13.1995 12.936 13.3547 12.8321 13.5256 12.7612C13.6964 12.6903 13.8796 12.6538 14.0645 12.6538C14.2495 12.6538 14.4326 12.6903 14.6035 12.7612C14.7743 12.8321 14.9295 12.936 15.0601 13.0669L22.502 20.5116L29.9439 13.0669C30.0746 12.9362 30.2299 12.8325 30.4007 12.7617C30.5715 12.691 30.7546 12.6545 30.9395 12.6545C31.1244 12.6545 31.3075 12.691 31.4784 12.7617C31.6492 12.8325 31.8044 12.9362 31.9351 13.0669C32.0659 13.1977 32.1696 13.3529 32.2404 13.5237C32.3111 13.6946 32.3475 13.8777 32.3475 14.0626C32.3475 14.2475 32.3111 14.4306 32.2404 14.6014C32.1696 14.7722 32.0659 14.9274 31.9351 15.0582L24.4905 22.5001L31.9351 29.9419C32.0659 30.0727 32.1696 30.2279 32.2404 30.3987C32.3111 30.5696 32.3475 30.7527 32.3475 30.9376C32.3475 31.1225 32.3111 31.3056 32.2404 31.4764C32.1696 31.6472 32.0659 31.8024 31.9351 31.9332C31.8044 32.0639 31.6492 32.1677 31.4784 32.2384C31.3075 32.3092 31.1244 32.3456 30.9395 32.3456C30.7546 32.3456 30.5715 32.3092 30.4007 32.2384C30.2299 32.1677 30.0746 32.0639 29.9439 31.9332L22.502 24.4885L15.0601 31.9332C14.9294 32.0639 14.7742 32.1677 14.6034 32.2384C14.4325 32.3092 14.2494 32.3456 14.0645 32.3456C13.8796 32.3456 13.6965 32.3092 13.5257 32.2384C13.3549 32.1677 13.1996 32.0639 13.0689 31.9332C12.9382 31.8024 12.8344 31.6472 12.7637 31.4764C12.6929 31.3056 12.6565 31.1225 12.6565 30.9376C12.6565 30.7527 12.6929 30.5696 12.7637 30.3987C12.8344 30.2279 12.9382 30.0727 13.0689 29.9419L20.5136 22.5001L13.0689 15.0582C12.9379 14.9276 12.834 14.7724 12.7631 14.6015C12.6923 14.4307 12.6558 14.2475 12.6558 14.0626C12.6558 13.8776 12.6923 13.6944 12.7631 13.5236C12.834 13.3528 12.9379 13.1976 13.0689 13.0669Z" fill="#666666"/>
</g>
</svg>
