<svg xmlns="http://www.w3.org/2000/svg" width="20" height="21" viewBox="0 0 20 21" fill="none">
  <path d="M9.99997 9C10.5523 9 11.0001 8.55229 11.0001 8C11.0001 7.44772 10.5523 7.00001 9.99997 7.00001C9.44772 7.00001 9 7.44772 9 8C9 8.55229 9.44772 9 9.99997 9Z" fill="currentColor"/>
  <path d="M15 8C15 8.55229 14.5523 9 14.0001 9C13.4477 9 13 8.55229 13 8C13 7.44772 13.4477 7.00001 14.0001 7.00001C14.5523 7.00001 15 7.44772 15 8Z" fill="currentColor"/>
  <path d="M6 9C6.55229 9 7.00001 8.55229 7.00001 8C7.00001 7.44772 6.55229 7.00001 6 7.00001C5.44772 7.00001 5 7.44772 5 8C5 8.55229 5.44772 9 6 9Z" fill="currentColor"/>
  <path fill-rule="evenodd" clip-rule="evenodd" d="M12.6429 3.38409e-07H7.3572C6.27341 -1.16616e-05 5.39926 -1.16825e-05 4.69138 0.0578163C3.96253 0.117372 3.32234 0.24318 2.73005 0.544968C1.78924 1.02433 1.02433 1.78924 0.544968 2.73005C0.24318 3.32234 0.117372 3.96253 0.0578163 4.69138C-1.16825e-05 5.39926 -1.16616e-05 6.27341 3.38408e-07 7.3572V8.64281C-1.16616e-05 9.7266 -1.16825e-05 10.6007 0.0578163 11.3086C0.117372 12.0375 0.24318 12.6777 0.544968 13.27C1.02433 14.2108 1.78924 14.9757 2.73005 15.4551C3.38701 15.7897 4.12354 15.9144 5 15.964V20.0001C5 20.4045 5.24364 20.7691 5.61732 20.9239C5.991 21.0786 6.42112 20.9931 6.70711 20.7071L11.4142 16H12.6427C13.7266 16 14.6008 16 15.3087 15.9421C16.0375 15.8826 16.6776 15.7569 17.2699 15.4551C18.2107 14.9757 18.9756 14.2108 19.455 13.27C19.7568 12.6777 19.8827 12.0375 19.9422 11.3086C20.0001 10.6008 20.0001 9.72666 20.0001 8.64294V7.35718C20.0001 6.27344 20.0001 5.39923 19.9422 4.69138C19.8827 3.96253 19.7568 3.32234 19.455 2.73005C18.9756 1.78924 18.2107 1.02433 17.2699 0.544968C16.6776 0.24318 16.0375 0.117372 15.3087 0.0578163C14.6008 -1.16825e-05 13.7266 -1.16616e-05 12.6429 3.38409e-07ZM3.63803 2.32698C3.90139 2.1928 4.24908 2.10062 4.85424 2.05118C5.47109 2.00078 6.2634 2 7.4 2H12.6C13.7367 2 14.5289 2.00078 15.1458 2.05118C15.751 2.10062 16.0986 2.1928 16.362 2.32698C16.9265 2.61461 17.3854 3.07355 17.673 3.63803C17.8072 3.90139 17.8993 4.24908 17.9488 4.85424C17.9992 5.47109 18 6.2634 18 7.4V8.60001C18 9.73661 17.9992 10.5289 17.9488 11.1457C17.8993 11.7509 17.8072 12.0987 17.673 12.3619C17.3854 12.9264 16.9265 13.3854 16.362 13.6731C16.0986 13.8072 15.751 13.8994 15.1458 13.9488C14.5289 13.9992 13.7367 14.0001 12.6 14.0001H11.0001C10.7347 14.0001 10.4805 14.1054 10.2929 14.2929L7.00001 17.5858V14.9944C7.00001 14.4474 6.56051 14.002 6.01355 13.9945C4.64464 13.9759 4.05914 13.8876 3.63803 13.6731C3.07355 13.3854 2.61461 12.9264 2.32698 12.3619C2.1928 12.0987 2.10062 11.7509 2.05118 11.1457C2.00078 10.5289 2 9.73661 2 8.60001V7.4C2 6.2634 2.00078 5.47109 2.05118 4.85424C2.10062 4.24908 2.1928 3.90139 2.32698 3.63803C2.61461 3.07355 3.07355 2.61461 3.63803 2.32698Z" fill="currentColor"/>
</svg>