<svg width="16" height="16" viewBox="0 0 16 16" fill="none" xmlns="http://www.w3.org/2000/svg">
<g id="Compose">
<g id="Export-_x28_Final---R1_x29__14_">
<g id="compose_1_">
<path id="container" d="M9.85658 1.26555C9.85658 1.58806 9.59912 1.84946 9.28156 1.8495L3.28585 1.84965C2.12313 1.84965 1.17741 2.79312 1.15063 3.9673L1.15004 12.5372C1.15004 13.7179 2.07914 14.6782 3.23544 14.7054L11.8291 14.706C12.9918 14.706 13.9375 13.7625 13.9643 12.5884L13.9648 6.2834C13.9649 5.96089 14.2223 5.69948 14.5399 5.69948C14.8575 5.69948 15.1149 5.96093 15.1149 6.2834V12.5371C15.1149 14.3799 13.6438 15.8738 11.8291 15.8738H3.28585C1.47114 15.8738 0 14.3799 0 12.5371V4.01848C0 2.17568 1.47114 0.681798 3.28585 0.681798L9.28156 0.681641C9.59912 0.681641 9.85658 0.943049 9.85658 1.26555Z" fill="#A6A6A6"/>
<path id="pencil" d="M15.3332 0.544637C16.0484 1.27082 16.0484 2.44818 15.3332 3.17436L9.7628 8.83092C9.5363 9.06091 9.26443 9.23954 8.965 9.35509L5.96796 10.5116C5.79087 10.5799 5.62876 10.6066 5.51801 10.5116C5.40725 10.4166 5.50933 10.0779 5.51801 10.0547L6.65692 7.01132C6.77071 6.7073 6.94662 6.43119 7.17311 6.20119L12.7435 0.544637C13.4586 -0.181546 14.6181 -0.181546 15.3332 0.544637ZM12.3137 2.7342L8.03631 7.07777C7.94484 7.17065 7.87125 7.27981 7.81908 7.39967L7.79807 7.45167L7.34852 8.65255L8.53133 8.19627C8.65225 8.14962 8.76343 8.08066 8.85937 7.99303L8.89954 7.95434L13.1799 3.60744L12.3137 2.7342ZM13.6311 1.39783L13.1768 1.85775L14.0431 2.73102L14.47 2.29782C14.7083 2.05577 14.7083 1.6633 14.47 1.42124C14.2396 1.18725 13.8707 1.17945 13.6311 1.39783Z" fill="#A6A6A6"/>
</g>
</g>
</g>
</svg>
