<svg width="18" height="21" viewBox="0 0 18 21" fill="none" xmlns="http://www.w3.org/2000/svg">
<path id="Down Arrow" fill-rule="evenodd" clip-rule="evenodd" d="M9 0.354004C9.34093 0.354004 9.6679 0.485836 9.90897 0.720498C10.15 0.95516 10.2855 1.27343 10.2855 1.60529V16.1027L15.8028 10.7297C15.9223 10.6133 16.0642 10.5211 16.2203 10.4581C16.3765 10.3951 16.5439 10.3627 16.7129 10.3627C16.8819 10.3627 17.0493 10.3951 17.2054 10.4581C17.3616 10.5211 17.5035 10.6133 17.623 10.7297C17.7425 10.846 17.8373 10.9841 17.902 11.1361C17.9667 11.2881 18 11.4511 18 11.6156C18 11.7801 17.9667 11.943 17.902 12.095C17.8373 12.247 17.7425 12.3852 17.623 12.5015L9.91012 20.0092C9.79071 20.1258 9.64886 20.2182 9.49268 20.2813C9.33651 20.3444 9.16909 20.3768 9 20.3768C8.83092 20.3768 8.66349 20.3444 8.50732 20.2813C8.35114 20.2182 8.20929 20.1258 8.08988 20.0092L0.376985 12.5015C0.257466 12.3852 0.162658 12.247 0.0979752 12.095C0.0332921 11.943 0 11.7801 0 11.6156C0 11.4511 0.0332921 11.2881 0.0979752 11.1361C0.162658 10.9841 0.257466 10.846 0.376985 10.7297C0.618364 10.4947 0.945745 10.3627 1.28711 10.3627C1.45613 10.3627 1.6235 10.3951 1.77966 10.4581C1.93582 10.5211 2.07771 10.6133 2.19723 10.7297L7.71452 16.1027V1.60529C7.71452 1.27343 7.84995 0.95516 8.09103 0.720498C8.3321 0.485836 8.65907 0.354004 9 0.354004Z" fill="#EF3E56"/>
</svg>
