<svg width="29" height="23" viewBox="0 0 29 23" fill="none" xmlns="http://www.w3.org/2000/svg">
<path d="M0.28125 4.44692C0.28125 3.49499 0.649949 2.58205 1.30624 1.90893C1.96253 1.23582 2.85264 0.857666 3.78077 0.857666H24.7779C25.7061 0.857666 26.5962 1.23582 27.2525 1.90893C27.9087 2.58205 28.2774 3.49499 28.2774 4.44692V18.8039C28.2774 19.7559 27.9087 20.6688 27.2525 21.3419C26.5962 22.015 25.7061 22.3932 24.7779 22.3932H3.78077C2.85264 22.3932 1.96253 22.015 1.30624 21.3419C0.649949 20.6688 0.28125 19.7559 0.28125 18.8039V4.44692ZM3.78077 2.65229C3.31671 2.65229 2.87165 2.84137 2.54351 3.17793C2.21536 3.51449 2.03101 3.97096 2.03101 4.44692V4.83636L14.2793 12.3738L26.5277 4.83636V4.44692C26.5277 3.97096 26.3433 3.51449 26.0152 3.17793C25.687 2.84137 25.242 2.65229 24.7779 2.65229H3.78077ZM26.5277 6.92889L18.2898 11.9987L26.5277 17.1978V6.92889ZM26.4682 19.2688L16.5995 13.0396L14.2793 14.4663L11.9592 13.0396L2.0905 19.267C2.18994 19.6488 2.40951 19.9864 2.71515 20.2272C3.02079 20.468 3.39538 20.5985 3.78077 20.5986H24.7779C25.1631 20.5986 25.5375 20.4683 25.8431 20.2279C26.1487 19.9874 26.3684 19.6503 26.4682 19.2688ZM2.03101 17.1978L10.2689 11.9987L2.03101 6.92889V17.1978Z" fill="white"/>
</svg>
