<svg xmlns="http://www.w3.org/2000/svg" width="24" height="21" viewBox="0 0 20 17" fill="none">
  <path d="M0 3.37221C0 2.69217 0.263392 2.03998 0.732233 1.55911C1.20107 1.07825 1.83696 0.808105 2.5 0.808105H17.5C18.163 0.808105 18.7989 1.07825 19.2678 1.55911C19.7366 2.03998 20 2.69217 20 3.37221V13.6286C20 14.3087 19.7366 14.9608 19.2678 15.4417C18.7989 15.9226 18.163 16.1927 17.5 16.1927H2.5C1.83696 16.1927 1.20107 15.9226 0.732233 15.4417C0.263392 14.9608 0 14.3087 0 13.6286V3.37221ZM2.5 2.09016C2.16848 2.09016 1.85054 2.22523 1.61612 2.46566C1.3817 2.70609 1.25 3.03219 1.25 3.37221V3.65041L10 9.03503L18.75 3.65041V3.37221C18.75 3.03219 18.6183 2.70609 18.3839 2.46566C18.1495 2.22523 17.8315 2.09016 17.5 2.09016H2.5ZM18.75 5.14528L12.865 8.76708L18.75 12.4812V5.14528ZM18.7075 13.9607L11.6575 9.51067L10 10.5299L8.3425 9.51067L1.2925 13.9594C1.36353 14.2322 1.5204 14.4733 1.73874 14.6453C1.95708 14.8174 2.22468 14.9106 2.5 14.9107H17.5C17.7752 14.9107 18.0426 14.8176 18.261 14.6459C18.4793 14.4741 18.6362 14.2332 18.7075 13.9607ZM1.25 12.4812L7.135 8.76708L1.25 5.14528V12.4812Z" fill="#666666"/>
</svg>