<svg width="29" height="22" viewBox="0 0 29 22" fill="none" xmlns="http://www.w3.org/2000/svg">
<path d="M0.703613 3.98567C0.703613 3.04632 1.06744 2.14544 1.71505 1.48122C2.36267 0.817003 3.24102 0.443848 4.15689 0.443848H24.8765C25.7924 0.443848 26.6708 0.817003 27.3184 1.48122C27.966 2.14544 28.3298 3.04632 28.3298 3.98567V18.153C28.3298 19.0923 27.966 19.9932 27.3184 20.6574C26.6708 21.3216 25.7924 21.6948 24.8765 21.6948H4.15689C3.24102 21.6948 2.36267 21.3216 1.71505 20.6574C1.06744 19.9932 0.703613 19.0923 0.703613 18.153V3.98567ZM4.15689 2.21476C3.69896 2.21476 3.25978 2.40134 2.93597 2.73345C2.61216 3.06556 2.43025 3.51599 2.43025 3.98567V4.36996L14.5167 11.8078L26.6032 4.36996V3.98567C26.6032 3.51599 26.4213 3.06556 26.0975 2.73345C25.7736 2.40134 25.3345 2.21476 24.8765 2.21476H4.15689ZM26.6032 6.43484L18.4742 11.4377L26.6032 16.568V6.43484ZM26.5445 18.6116L16.8062 12.4648L14.5167 13.8727L12.2272 12.4648L2.48896 18.6098C2.58707 18.9867 2.80375 19.3198 3.10535 19.5574C3.40695 19.795 3.77659 19.9238 4.15689 19.9239H24.8765C25.2566 19.9239 25.6261 19.7953 25.9276 19.5581C26.2292 19.3208 26.446 18.9881 26.5445 18.6116ZM2.43025 16.568L10.5593 11.4377L2.43025 6.43484V16.568Z" fill="#666666"/>
</svg>
