<svg width="20" height="16" viewBox="0 0 20 16" fill="none" xmlns="http://www.w3.org/2000/svg">
<path d="M19.9794 10.9707C19.6492 9.111 18.4151 7.61777 16.7878 6.92517C17.51 6.31955 17.9712 5.4025 17.9712 4.37802C17.9712 2.55841 16.5168 1.078 14.7289 1.078C12.941 1.078 11.4865 2.55826 11.4865 4.37802C11.4865 5.40311 11.9483 6.32047 12.6712 6.92624C12.4015 7.04129 12.1401 7.17862 11.8904 7.33869C11.2613 7.74213 10.7242 8.27344 10.3102 8.89569C9.88895 8.61585 9.43591 8.383 8.95831 8.20432C9.98477 7.46228 10.6559 6.24219 10.6559 4.86539C10.6559 2.60907 8.85364 0.773438 6.63837 0.773438C4.4231 0.773438 2.62088 2.60907 2.62088 4.86539C2.62088 6.24219 3.29196 7.46228 4.31842 8.20432C2.13397 9.02158 0.458556 10.9651 0.0239856 13.412C-0.0562756 13.8644 0.0670155 14.3258 0.361968 14.678C0.654174 15.0267 1.0805 15.2266 1.53171 15.2266H11.745C12.1962 15.2266 12.6226 15.0267 12.9148 14.678C13.2099 14.3258 13.333 13.8644 13.2527 13.412C13.1992 13.1102 13.1266 12.8161 13.0367 12.5309H18.6818C19.0703 12.5309 19.4374 12.3588 19.6889 12.0588C19.9425 11.7563 20.0484 11.3595 19.9794 10.9707ZM12.6584 4.37802C12.6584 3.20447 13.5872 2.24988 14.7289 2.24988C15.8705 2.24988 16.7993 3.20447 16.7993 4.37802C16.7993 5.55142 15.8705 6.50601 14.7289 6.50601C13.5872 6.50601 12.6584 5.55142 12.6584 4.37802ZM3.79275 4.86539C3.79275 3.25528 5.0693 1.94531 6.63837 1.94531C8.20743 1.94531 9.48413 3.25528 9.48413 4.86539C9.48413 6.4755 8.20743 7.78546 6.63837 7.78546C5.0693 7.78546 3.79275 6.4755 3.79275 4.86539ZM12.0166 13.9253C11.976 13.9737 11.8869 14.0547 11.745 14.0547H1.53171C1.3898 14.0547 1.30069 13.9737 1.2601 13.9253C1.21799 13.8749 1.15115 13.7678 1.17786 13.6168C1.65729 10.917 3.95373 8.95734 6.63837 8.95734C9.323 8.95734 11.6196 10.917 12.0989 13.6168C12.1257 13.7678 12.0589 13.8749 12.0166 13.9253ZM18.7908 11.3061C18.7741 11.326 18.738 11.3591 18.682 11.3591H12.5441C12.1975 10.7095 11.7522 10.1268 11.2299 9.62964C11.9931 8.4155 13.2976 7.67789 14.7289 7.67789C16.7429 7.67789 18.4656 9.14884 18.8256 11.1757C18.8369 11.2396 18.8086 11.2849 18.7908 11.3061Z" fill="currentColor"/>
</svg>
