<svg width="51" height="51" viewBox="0 0 51 51" fill="none" xmlns="http://www.w3.org/2000/svg">
<g id="CheckCircle" clip-path="url(#clip0_2929_9842)">
<path id="Vector" d="M25.5 47.8125C19.5824 47.8125 13.9071 45.4617 9.72268 41.2773C5.53827 37.0929 3.1875 31.4176 3.1875 25.5C3.1875 19.5824 5.53827 13.9071 9.72268 9.72268C13.9071 5.53827 19.5824 3.1875 25.5 3.1875C31.4176 3.1875 37.0929 5.53827 41.2773 9.72268C45.4617 13.9071 47.8125 19.5824 47.8125 25.5C47.8125 31.4176 45.4617 37.0929 41.2773 41.2773C37.0929 45.4617 31.4176 47.8125 25.5 47.8125ZM25.5 51C32.263 51 38.749 48.3134 43.5312 43.5312C48.3134 38.749 51 32.263 51 25.5C51 18.737 48.3134 12.251 43.5312 7.46878C38.749 2.6866 32.263 0 25.5 0C18.737 0 12.251 2.6866 7.46878 7.46878C2.6866 12.251 0 18.737 0 25.5C0 32.263 2.6866 38.749 7.46878 43.5312C12.251 48.3134 18.737 51 25.5 51Z" fill="currentColor"/>
<path id="Vector_2" d="M34.9673 15.8419L34.9036 15.912L23.8334 30.0167L17.162 23.3421C16.7088 22.9198 16.1094 22.6899 15.4901 22.7008C14.8707 22.7118 14.2798 22.9626 13.8418 23.4007C13.4038 23.8387 13.1529 24.4296 13.142 25.0489C13.131 25.6682 13.3609 26.2676 13.7832 26.7208L22.2173 35.1581C22.4446 35.3849 22.7151 35.5636 23.0129 35.6836C23.3107 35.8036 23.6296 35.8623 23.9505 35.8564C24.2715 35.8504 24.588 35.7799 24.8811 35.649C25.1743 35.5181 25.438 35.3294 25.6567 35.0944L38.3812 19.1888C38.8144 18.734 39.0513 18.127 39.0406 17.499C39.0299 16.8709 38.7725 16.2724 38.324 15.8326C37.8754 15.3929 37.2719 15.1474 36.6438 15.1491C36.0156 15.1508 35.4134 15.3997 34.9673 15.8419Z" fill="currentColor"/>
</g>
<defs>
<clipPath id="clip0_2929_9842">
<rect width="51" height="51" fill="white"/>
</clipPath>
</defs>
</svg>
