<svg width="25" height="25" viewBox="0 0 25 25" fill="none" xmlns="http://www.w3.org/2000/svg">
<path d="M25 24.9999V15.8437C25 11.3437 24.0312 7.90625 18.7812 7.90625C16.25 7.90625 14.5625 9.28125 13.875 10.5937H13.8125V8.3125H8.84375V24.9999H14.0312V16.7187C14.0312 14.5312 14.4375 12.4375 17.125 12.4375C19.7812 12.4375 19.8125 14.9062 19.8125 16.8437V24.9687H25V24.9999Z" fill="white"/>
<path d="M0.40625 8.3125H5.59373V24.9999H0.40625V8.3125Z" fill="white"/>
<path d="M2.99999 0C1.34375 0 0 1.34375 0 2.99999C0 4.65624 1.34375 6.03123 2.99999 6.03123C4.65624 6.03123 5.99998 4.65624 5.99998 2.99999C5.99998 1.34375 4.65624 0 2.99999 0Z" fill="white"/>
</svg>
