<svg width="1011" height="52" viewBox="0 0 1011 52" fill="none" xmlns="http://www.w3.org/2000/svg">
<path d="M935.857 19.2656C935.857 19.5881 935.599 19.8495 935.282 19.8495L929.286 19.8497C928.123 19.8497 927.177 20.7931 927.151 21.9673L927.15 30.5372C927.15 31.7179 928.079 32.6782 929.235 32.7054L937.829 32.706C938.992 32.706 939.938 31.7625 939.964 30.5884L939.965 24.2834C939.965 23.9609 940.222 23.6995 940.54 23.6995C940.857 23.6995 941.115 23.9609 941.115 24.2834V30.5371C941.115 32.3799 939.644 33.8738 937.829 33.8738H929.286C927.471 33.8738 926 32.3799 926 30.5371V22.0185C926 20.1757 927.471 18.6818 929.286 18.6818L935.282 18.6816C935.599 18.6816 935.857 18.943 935.857 19.2656Z" fill="#A6A6A6"/>
<path d="M941.333 18.5446C942.048 19.2708 942.048 20.4482 941.333 21.1744L935.763 26.8309C935.536 27.0609 935.264 27.2395 934.965 27.3551L931.968 28.5116C931.791 28.5799 931.629 28.6066 931.518 28.5116C931.407 28.4166 931.509 28.0779 931.518 28.0547L932.657 25.0113C932.771 24.7073 932.947 24.4312 933.173 24.2012L938.744 18.5446C939.459 17.8185 940.618 17.8185 941.333 18.5446ZM938.314 20.7342L934.036 25.0778C933.945 25.1707 933.871 25.2798 933.819 25.3997L933.798 25.4517L933.349 26.6525L934.531 26.1963C934.652 26.1496 934.763 26.0807 934.859 25.993L934.9 25.9543L939.18 21.6074L938.314 20.7342ZM939.631 19.3978L939.177 19.8578L940.043 20.731L940.47 20.2978C940.708 20.0558 940.708 19.6633 940.47 19.4212C940.24 19.1873 939.871 19.1794 939.631 19.3978Z" fill="#A6A6A6"/>
<path d="M955.157 24.2H953.959C953.888 23.8555 953.764 23.5528 953.587 23.292C953.413 23.0312 953.201 22.8123 952.95 22.6352C952.702 22.4549 952.427 22.3197 952.124 22.2295C951.821 22.1394 951.506 22.0943 951.177 22.0943C950.578 22.0943 950.036 22.2456 949.55 22.5483C949.067 22.8509 948.682 23.2969 948.395 23.8861C948.112 24.4753 947.97 25.1981 947.97 26.0545C947.97 26.911 948.112 27.6338 948.395 28.223C948.682 28.8122 949.067 29.2581 949.55 29.5608C950.036 29.8634 950.578 30.0148 951.177 30.0148C951.506 30.0148 951.821 29.9697 952.124 29.8795C952.427 29.7894 952.702 29.6558 952.95 29.4787C953.201 29.2984 953.413 29.0778 953.587 28.817C953.764 28.553 953.888 28.2504 953.959 27.9091H955.157C955.067 28.4146 954.902 28.867 954.664 29.2662C954.426 29.6654 954.13 30.0051 953.776 30.2852C953.421 30.5621 953.024 30.773 952.583 30.9179C952.145 31.0628 951.676 31.1352 951.177 31.1352C950.334 31.1352 949.584 30.9292 948.927 30.517C948.27 30.1049 947.753 29.5189 947.376 28.7591C947 27.9992 946.811 27.0977 946.811 26.0545C946.811 25.0114 947 24.1098 947.376 23.35C947.753 22.5902 948.27 22.0042 948.927 21.592C949.584 21.1799 950.334 20.9739 951.177 20.9739C951.676 20.9739 952.145 21.0463 952.583 21.1912C953.024 21.3361 953.421 21.5486 953.776 21.8287C954.13 22.1056 954.426 22.4437 954.664 22.8429C954.902 23.2389 955.067 23.6913 955.157 24.2ZM959.951 31.1545C959.282 31.1545 958.694 30.9952 958.189 30.6764C957.686 30.3577 957.293 29.9117 957.01 29.3386C956.73 28.7655 956.59 28.0958 956.59 27.3295C956.59 26.5568 956.73 25.8823 957.01 25.306C957.293 24.7296 957.686 24.2821 958.189 23.9634C958.694 23.6446 959.282 23.4852 959.951 23.4852C960.621 23.4852 961.207 23.6446 961.709 23.9634C962.215 24.2821 962.608 24.7296 962.888 25.306C963.171 25.8823 963.313 26.5568 963.313 27.3295C963.313 28.0958 963.171 28.7655 962.888 29.3386C962.608 29.9117 962.215 30.3577 961.709 30.6764C961.207 30.9952 960.621 31.1545 959.951 31.1545ZM959.951 30.1307C960.46 30.1307 960.879 30.0003 961.207 29.7395C961.535 29.4787 961.779 29.1358 961.936 28.7108C962.094 28.2858 962.173 27.8254 962.173 27.3295C962.173 26.8337 962.094 26.3717 961.936 25.9435C961.779 25.5152 961.535 25.1691 961.207 24.9051C960.879 24.6411 960.46 24.5091 959.951 24.5091C959.443 24.5091 959.024 24.6411 958.696 24.9051C958.367 25.1691 958.124 25.5152 957.966 25.9435C957.809 26.3717 957.73 26.8337 957.73 27.3295C957.73 27.8254 957.809 28.2858 957.966 28.7108C958.124 29.1358 958.367 29.4787 958.696 29.7395C959.024 30.0003 959.443 30.1307 959.951 30.1307ZM965.053 31V23.5818H966.154V24.7409H966.25C966.405 24.3449 966.654 24.0374 966.999 23.8185C967.343 23.5963 967.757 23.4852 968.24 23.4852C968.729 23.4852 969.137 23.5963 969.462 23.8185C969.79 24.0374 970.046 24.3449 970.23 24.7409H970.307C970.497 24.3578 970.782 24.0535 971.162 23.8281C971.542 23.5995 971.997 23.4852 972.529 23.4852C973.192 23.4852 973.734 23.6929 974.156 24.1082C974.578 24.5204 974.789 25.1627 974.789 26.0352V31H973.649V26.0352C973.649 25.4879 973.499 25.0967 973.2 24.8616C972.901 24.6266 972.548 24.5091 972.142 24.5091C971.621 24.5091 971.217 24.6669 970.93 24.9824C970.644 25.2947 970.5 25.6907 970.5 26.1705V31H969.341V25.9193C969.341 25.4975 969.204 25.1579 968.931 24.9003C968.657 24.6395 968.304 24.5091 967.873 24.5091C967.577 24.5091 967.3 24.588 967.042 24.7457C966.788 24.9035 966.582 25.1224 966.424 25.4026C966.27 25.6795 966.192 25.9998 966.192 26.3636V31H965.053ZM976.873 33.7818V23.5818H977.974V24.7602H978.109C978.193 24.6314 978.309 24.4672 978.457 24.2676C978.608 24.0648 978.824 23.8845 979.104 23.7267C979.387 23.5657 979.771 23.4852 980.254 23.4852C980.878 23.4852 981.429 23.6414 981.905 23.9537C982.382 24.266 982.754 24.7087 983.021 25.2818C983.288 25.8549 983.422 26.5311 983.422 27.3102C983.422 28.0958 983.288 28.7768 983.021 29.3531C982.754 29.9262 982.383 30.3705 981.91 30.6861C981.437 30.9984 980.891 31.1545 980.273 31.1545C979.796 31.1545 979.415 31.0757 979.128 30.9179C978.842 30.7569 978.621 30.575 978.467 30.3722C978.312 30.1661 978.193 29.9955 978.109 29.8602H978.013V33.7818H976.873ZM977.993 27.2909C977.993 27.8511 978.075 28.3454 978.24 28.7736C978.404 29.1986 978.644 29.5318 978.959 29.7733C979.275 30.0116 979.661 30.1307 980.118 30.1307C980.595 30.1307 980.992 30.0051 981.311 29.754C981.633 29.4996 981.875 29.1583 982.036 28.7301C982.2 28.2987 982.282 27.8189 982.282 27.2909C982.282 26.7693 982.201 26.2992 982.04 25.8807C981.883 25.4589 981.643 25.1257 981.321 24.881C981.002 24.633 980.601 24.5091 980.118 24.5091C979.655 24.5091 979.265 24.6266 978.95 24.8616C978.634 25.0935 978.396 25.4187 978.235 25.8372C978.074 26.2526 977.993 26.7371 977.993 27.2909ZM988.174 31.1545C987.504 31.1545 986.917 30.9952 986.411 30.6764C985.909 30.3577 985.516 29.9117 985.233 29.3386C984.953 28.7655 984.813 28.0958 984.813 27.3295C984.813 26.5568 984.953 25.8823 985.233 25.306C985.516 24.7296 985.909 24.2821 986.411 23.9634C986.917 23.6446 987.504 23.4852 988.174 23.4852C988.844 23.4852 989.43 23.6446 989.932 23.9634C990.437 24.2821 990.83 24.7296 991.11 25.306C991.394 25.8823 991.535 26.5568 991.535 27.3295C991.535 28.0958 991.394 28.7655 991.11 29.3386C990.83 29.9117 990.437 30.3577 989.932 30.6764C989.43 30.9952 988.844 31.1545 988.174 31.1545ZM988.174 30.1307C988.683 30.1307 989.101 30.0003 989.43 29.7395C989.758 29.4787 990.001 29.1358 990.159 28.7108C990.317 28.2858 990.396 27.8254 990.396 27.3295C990.396 26.8337 990.317 26.3717 990.159 25.9435C990.001 25.5152 989.758 25.1691 989.43 24.9051C989.101 24.6411 988.683 24.5091 988.174 24.5091C987.665 24.5091 987.247 24.6411 986.918 24.9051C986.59 25.1691 986.347 25.5152 986.189 25.9435C986.031 26.3717 985.952 26.8337 985.952 27.3295C985.952 27.8254 986.031 28.2858 986.189 28.7108C986.347 29.1358 986.59 29.4787 986.918 29.7395C987.247 30.0003 987.665 30.1307 988.174 30.1307ZM998.53 25.2432L997.506 25.533C997.442 25.3623 997.347 25.1965 997.221 25.0355C997.099 24.8713 996.931 24.7361 996.719 24.6298C996.506 24.5236 996.234 24.4705 995.902 24.4705C995.449 24.4705 995.07 24.5751 994.768 24.7844C994.468 24.9904 994.318 25.2528 994.318 25.5716C994.318 25.8549 994.421 26.0787 994.627 26.2429C994.834 26.4071 995.156 26.5439 995.593 26.6534L996.695 26.9239C997.358 27.0848 997.852 27.3312 998.177 27.6628C998.502 27.9912 998.665 28.4146 998.665 28.933C998.665 29.358 998.543 29.7379 998.298 30.0727C998.056 30.4076 997.718 30.6716 997.284 30.8648C996.849 31.058 996.344 31.1545 995.767 31.1545C995.011 31.1545 994.384 30.9903 993.889 30.6619C993.393 30.3335 993.079 29.8538 992.947 29.2227L994.029 28.9523C994.132 29.3515 994.326 29.6509 994.613 29.8506C994.903 30.0502 995.281 30.15 995.748 30.15C996.279 30.15 996.701 30.0373 997.013 29.8119C997.329 29.5833 997.487 29.3097 997.487 28.9909C997.487 28.7333 997.396 28.5176 997.216 28.3437C997.036 28.1667 996.759 28.0347 996.385 27.9477L995.149 27.658C994.47 27.497 993.971 27.2474 993.652 26.9094C993.336 26.5681 993.179 26.1415 993.179 25.6295C993.179 25.211 993.296 24.8407 993.531 24.5187C993.769 24.1968 994.093 23.944 994.502 23.7605C994.914 23.577 995.381 23.4852 995.902 23.4852C996.637 23.4852 997.213 23.6462 997.631 23.9682C998.053 24.2902 998.353 24.7152 998.53 25.2432ZM1003.49 31.1545C1002.78 31.1545 1002.16 30.9968 1001.64 30.6812C1001.13 30.3625 1000.73 29.9182 1000.45 29.3483C1000.17 28.7752 1000.03 28.1087 1000.03 27.3489C1000.03 26.589 1000.17 25.9193 1000.45 25.3398C1000.73 24.757 1001.12 24.303 1001.62 23.9778C1002.12 23.6494 1002.71 23.4852 1003.38 23.4852C1003.76 23.4852 1004.14 23.5496 1004.52 23.6784C1004.9 23.8072 1005.24 24.0165 1005.55 24.3062C1005.86 24.5928 1006.1 24.9727 1006.29 25.446C1006.47 25.9193 1006.56 26.5021 1006.56 27.1943V27.6773H1000.84V26.692H1005.4C1005.4 26.2735 1005.32 25.9 1005.15 25.5716C1004.99 25.2432 1004.75 24.984 1004.45 24.794C1004.14 24.6041 1003.79 24.5091 1003.38 24.5091C1002.92 24.5091 1002.53 24.6218 1002.2 24.8472C1001.87 25.0693 1001.62 25.3591 1001.44 25.7165C1001.26 26.0739 1001.17 26.457 1001.17 26.8659V27.5227C1001.17 28.083 1001.27 28.5579 1001.46 28.9474C1001.66 29.3338 1001.93 29.6284 1002.28 29.8312C1002.63 30.0309 1003.03 30.1307 1003.49 30.1307C1003.79 30.1307 1004.06 30.0888 1004.3 30.0051C1004.55 29.9182 1004.76 29.7894 1004.93 29.6187C1005.11 29.4449 1005.25 29.2292 1005.35 28.9716L1006.45 29.2807C1006.33 29.6542 1006.14 29.9826 1005.86 30.2659C1005.59 30.546 1005.25 30.765 1004.85 30.9227C1004.45 31.0773 1003.99 31.1545 1003.49 31.1545Z" fill="#A6A6A6"/>
<line y1="50.606" x2="1011" y2="50.606" stroke="#D9D9D9"/>
<path d="M28.0625 38H18.6875V36.375L20.25 36.2031C20.4271 36.1823 20.5885 36.1146 20.7344 36C20.8802 35.875 20.9531 35.7083 20.9531 35.5V18.7031L14.5312 38H12.0625L5.76562 18.8281V35.5C5.76562 35.7083 5.83854 35.875 5.98438 36C6.13021 36.1146 6.29167 36.1823 6.46875 36.2031L8.1875 36.375V38H0.796875V36.375L2.59375 36.2031C2.78125 36.1823 2.94792 36.1146 3.09375 36C3.25 35.875 3.32812 35.7083 3.32812 35.5V19.0312C3.32812 18.8229 3.25 18.6562 3.09375 18.5312C2.94792 18.4062 2.78125 18.3333 2.59375 18.3125L0.796875 18.1562V16.5312H9.98438V17.4219L14.5 31.125L18.9688 17.4219V16.5312H28.0625V18.1562L26.2344 18.3125C26.0469 18.3333 25.8802 18.4062 25.7344 18.5312C25.599 18.6562 25.5312 18.8229 25.5312 19.0312V35.5C25.5312 35.7083 25.599 35.875 25.7344 36C25.8802 36.1146 26.0469 36.1823 26.2344 36.2031L28.0625 36.375V38ZM44.8438 36.5C44.8438 36.5 44.5625 36.6615 44 36.9844C43.4375 37.2969 42.651 37.6094 41.6406 37.9219C40.6302 38.2344 39.4479 38.3906 38.0938 38.3906C36.2812 38.3906 34.7708 38.0312 33.5625 37.3125C32.3542 36.5938 31.4479 35.6302 30.8438 34.4219C30.2396 33.2135 29.9375 31.8698 29.9375 30.3906C29.9375 28.776 30.2708 27.3385 30.9375 26.0781C31.6042 24.8073 32.5417 23.8125 33.75 23.0938C34.9583 22.3646 36.375 22 38 22C39.6771 22 41.0156 22.349 42.0156 23.0469C43.0156 23.7448 43.7344 24.651 44.1719 25.7656C44.6198 26.8802 44.8438 28.0573 44.8438 29.2969V30.0625H34.3438C34.3438 31.8021 34.7708 33.1823 35.625 34.2031C36.4896 35.224 37.7083 35.7344 39.2812 35.7344C40.3542 35.7344 41.3073 35.5833 42.1406 35.2812C42.9844 34.9792 43.6458 34.6823 44.125 34.3906C44.6042 34.0885 44.8438 33.9375 44.8438 33.9375V36.5ZM40.2656 28.2656V27.5625C40.2656 26.5417 40.0625 25.6771 39.6562 24.9688C39.2604 24.25 38.5885 23.8906 37.6406 23.8906C36.8594 23.8906 36.2396 24.1146 35.7812 24.5625C35.3229 25.0104 34.9948 25.5729 34.7969 26.25C34.599 26.9167 34.5 27.5885 34.5 28.2656H40.2656ZM58.5781 27.2812H56.5938L56.25 24.7188C55.7917 24.1875 54.9583 23.9219 53.75 23.9219C53 23.9219 52.4115 24.0781 51.9844 24.3906C51.5573 24.6927 51.3438 25.125 51.3438 25.6875C51.3438 26.3229 51.6719 26.8698 52.3281 27.3281C52.9844 27.7865 53.7344 28.2292 54.5781 28.6562C55.2969 29.0104 56 29.401 56.6875 29.8281C57.3854 30.2448 57.9583 30.7344 58.4062 31.2969C58.8646 31.849 59.0938 32.526 59.0938 33.3281C59.0938 34.5677 58.7708 35.5573 58.125 36.2969C57.4792 37.0365 56.6562 37.5729 55.6562 37.9062C54.6562 38.2292 53.625 38.3906 52.5625 38.3906C51.4167 38.3906 50.3177 38.2917 49.2656 38.0938C48.224 37.8958 47.4271 37.7031 46.875 37.5156V32.6562H48.8906L49.2656 35.5938C49.2969 35.6562 49.4896 35.7604 49.8438 35.9062C50.1979 36.0521 50.599 36.1875 51.0469 36.3125C51.5052 36.4375 51.9062 36.5 52.25 36.5C52.9792 36.5 53.5417 36.3802 53.9375 36.1406C54.3333 35.901 54.6094 35.6198 54.7656 35.2969C54.9219 34.974 55 34.6927 55 34.4531C55 33.8073 54.6875 33.2865 54.0625 32.8906C53.4479 32.4844 52.6562 32.0573 51.6875 31.6094C50.0938 30.8594 48.9219 30.1406 48.1719 29.4531C47.4323 28.7552 47.0625 27.8906 47.0625 26.8594C47.0625 25.8698 47.3385 25.0104 47.8906 24.2812C48.4427 23.5521 49.2031 22.9896 50.1719 22.5938C51.1406 22.1979 52.2448 22 53.4844 22C54.6406 22 55.6719 22.099 56.5781 22.2969C57.4948 22.4844 58.1615 22.6719 58.5781 22.8594V27.2812ZM72.8281 27.2812H70.8438L70.5 24.7188C70.0417 24.1875 69.2083 23.9219 68 23.9219C67.25 23.9219 66.6615 24.0781 66.2344 24.3906C65.8073 24.6927 65.5938 25.125 65.5938 25.6875C65.5938 26.3229 65.9219 26.8698 66.5781 27.3281C67.2344 27.7865 67.9844 28.2292 68.8281 28.6562C69.5469 29.0104 70.25 29.401 70.9375 29.8281C71.6354 30.2448 72.2083 30.7344 72.6562 31.2969C73.1146 31.849 73.3438 32.526 73.3438 33.3281C73.3438 34.5677 73.0208 35.5573 72.375 36.2969C71.7292 37.0365 70.9062 37.5729 69.9062 37.9062C68.9062 38.2292 67.875 38.3906 66.8125 38.3906C65.6667 38.3906 64.5677 38.2917 63.5156 38.0938C62.474 37.8958 61.6771 37.7031 61.125 37.5156V32.6562H63.1406L63.5156 35.5938C63.5469 35.6562 63.7396 35.7604 64.0938 35.9062C64.4479 36.0521 64.849 36.1875 65.2969 36.3125C65.7552 36.4375 66.1562 36.5 66.5 36.5C67.2292 36.5 67.7917 36.3802 68.1875 36.1406C68.5833 35.901 68.8594 35.6198 69.0156 35.2969C69.1719 34.974 69.25 34.6927 69.25 34.4531C69.25 33.8073 68.9375 33.2865 68.3125 32.8906C67.6979 32.4844 66.9062 32.0573 65.9375 31.6094C64.3438 30.8594 63.1719 30.1406 62.4219 29.4531C61.6823 28.7552 61.3125 27.8906 61.3125 26.8594C61.3125 25.8698 61.5885 25.0104 62.1406 24.2812C62.6927 23.5521 63.4531 22.9896 64.4219 22.5938C65.3906 22.1979 66.4948 22 67.7344 22C68.8906 22 69.9219 22.099 70.8281 22.2969C71.7448 22.4844 72.4115 22.6719 72.8281 22.8594V27.2812ZM91.5 38H85.5469L85.125 36.4062C85.125 36.4062 84.9688 36.5052 84.6562 36.7031C84.3438 36.901 83.9219 37.1354 83.3906 37.4062C82.8698 37.6667 82.276 37.8958 81.6094 38.0938C80.9531 38.2917 80.2708 38.3906 79.5625 38.3906C78.4062 38.3906 77.4167 38.0156 76.5938 37.2656C75.7812 36.5156 75.375 35.5104 75.375 34.25C75.375 33.5312 75.4792 32.8958 75.6875 32.3438C75.8958 31.7812 76.3229 31.2656 76.9688 30.7969C77.6146 30.3177 78.5885 29.8594 79.8906 29.4219C81.2031 28.974 82.9583 28.5052 85.1562 28.0156C85.1562 27.776 85.1615 27.5104 85.1719 27.2188C85.1823 26.9167 85.1875 26.7656 85.1875 26.7656C85.1979 26.3594 85.1302 25.9271 84.9844 25.4688C84.8385 25.0104 84.5469 24.6198 84.1094 24.2969C83.6823 23.9635 83.0417 23.7969 82.1875 23.7969C81.75 23.7969 81.4115 23.8177 81.1719 23.8594C80.9323 23.901 80.8125 23.9219 80.8125 23.9219V26.9531H77.5156C77.5156 26.9531 77.3958 26.9479 77.1562 26.9375C76.9167 26.9271 76.6771 26.849 76.4375 26.7031C76.1979 26.5469 76.0781 26.25 76.0781 25.8125C76.0781 25.2188 76.2865 24.6875 76.7031 24.2188C77.1198 23.75 77.6719 23.349 78.3594 23.0156C79.0573 22.6823 79.8281 22.4323 80.6719 22.2656C81.5156 22.0885 82.3594 22 83.2031 22C84.4323 22 85.5104 22.1354 86.4375 22.4062C87.3646 22.6667 88.0885 23.1875 88.6094 23.9688C89.1302 24.7396 89.3906 25.8958 89.3906 27.4375V35.6562C89.3906 35.8542 89.4583 36.026 89.5938 36.1719C89.7292 36.3073 89.8958 36.3854 90.0938 36.4062L91.5 36.5V38ZM85.125 35.0312V29.75C83.75 30.0208 82.6823 30.3125 81.9219 30.625C81.1719 30.9375 80.6458 31.3125 80.3438 31.75C80.0521 32.1771 79.9062 32.7135 79.9062 33.3594C79.9062 34.0156 80.1198 34.5781 80.5469 35.0469C80.974 35.5052 81.5208 35.7344 82.1875 35.7344C82.6458 35.7344 83.099 35.6771 83.5469 35.5625C84.0052 35.4479 84.3802 35.3333 84.6719 35.2188C84.974 35.0938 85.125 35.0312 85.125 35.0312ZM109.531 24.875H106.719C106.719 24.875 106.823 25.1198 107.031 25.6094C107.25 26.0885 107.359 26.6562 107.359 27.3125C107.359 28.3854 107.104 29.276 106.594 29.9844C106.094 30.6927 105.448 31.25 104.656 31.6562C103.875 32.0521 103.042 32.3229 102.156 32.4688C101.271 32.6146 100.453 32.6667 99.7031 32.625C99.3177 32.8854 99.0312 33.1562 98.8438 33.4375C98.6562 33.7188 98.6562 34.0885 98.8438 34.5469C102.354 34.8385 104.854 35.3646 106.344 36.125C107.833 36.8854 108.578 37.9375 108.578 39.2812C108.578 40.2083 108.328 41.0469 107.828 41.7969C107.328 42.5469 106.661 43.1875 105.828 43.7188C104.995 44.2604 104.068 44.6719 103.047 44.9531C102.026 45.2448 100.99 45.3906 99.9375 45.3906C98.8229 45.3906 97.7396 45.2135 96.6875 44.8594C95.6354 44.5156 94.7708 43.974 94.0938 43.2344C93.4271 42.5052 93.0938 41.5729 93.0938 40.4375C93.0938 39.5521 93.2969 38.8542 93.7031 38.3438C94.1198 37.8438 94.5833 37.4948 95.0938 37.2969C95.6042 37.099 96 37.026 96.2812 37.0781C96.1458 36.7865 96.0417 36.4844 95.9688 36.1719C95.9062 35.849 95.875 35.5833 95.875 35.375C95.875 34.8229 96.0208 34.3281 96.3125 33.8906C96.6042 33.4427 97.0521 32.9479 97.6562 32.4062C97.375 32.3438 97.0156 32.2135 96.5781 32.0156C96.1406 31.8073 95.7031 31.5208 95.2656 31.1562C94.8281 30.7812 94.4583 30.3021 94.1562 29.7188C93.8646 29.1354 93.7188 28.4271 93.7188 27.5938C93.7188 26.3125 94.0365 25.2604 94.6719 24.4375C95.3073 23.6146 96.1615 23.0052 97.2344 22.6094C98.3073 22.2031 99.4948 22 100.797 22C101.807 22 102.688 22.1198 103.438 22.3594C104.198 22.599 104.844 22.8073 105.375 22.9844H109.531V24.875ZM103.141 27.25C103.141 26.6562 103.047 26.0781 102.859 25.5156C102.682 24.9531 102.417 24.4896 102.062 24.125C101.708 23.75 101.266 23.5625 100.734 23.5625C100.099 23.5625 99.5885 23.7448 99.2031 24.1094C98.8281 24.474 98.5573 24.9427 98.3906 25.5156C98.224 26.0781 98.1406 26.6667 98.1406 27.2812C98.1406 27.9062 98.2292 28.5156 98.4062 29.1094C98.5833 29.6927 98.8594 30.1771 99.2344 30.5625C99.6094 30.9375 100.089 31.125 100.672 31.125C101.255 31.125 101.724 30.9323 102.078 30.5469C102.443 30.1615 102.708 29.6719 102.875 29.0781C103.052 28.4844 103.141 27.875 103.141 27.25ZM104.453 40.2031C104.453 39.6406 104.214 39.1875 103.734 38.8438C103.255 38.5104 102.667 38.25 101.969 38.0625C101.281 37.875 100.599 37.7448 99.9219 37.6719C99.2448 37.5885 98.7031 37.526 98.2969 37.4844C98.099 37.7865 97.8854 38.1302 97.6562 38.5156C97.4271 38.901 97.3125 39.3906 97.3125 39.9844C97.3021 40.6615 97.474 41.276 97.8281 41.8281C98.1823 42.3802 98.6302 42.8177 99.1719 43.1406C99.7135 43.4635 100.266 43.625 100.828 43.625C101.401 43.625 101.964 43.4844 102.516 43.2031C103.068 42.9219 103.526 42.5208 103.891 42C104.266 41.4896 104.453 40.8906 104.453 40.2031ZM125.781 36.5C125.781 36.5 125.5 36.6615 124.938 36.9844C124.375 37.2969 123.589 37.6094 122.578 37.9219C121.568 38.2344 120.385 38.3906 119.031 38.3906C117.219 38.3906 115.708 38.0312 114.5 37.3125C113.292 36.5938 112.385 35.6302 111.781 34.4219C111.177 33.2135 110.875 31.8698 110.875 30.3906C110.875 28.776 111.208 27.3385 111.875 26.0781C112.542 24.8073 113.479 23.8125 114.688 23.0938C115.896 22.3646 117.312 22 118.938 22C120.615 22 121.953 22.349 122.953 23.0469C123.953 23.7448 124.672 24.651 125.109 25.7656C125.557 26.8802 125.781 28.0573 125.781 29.2969V30.0625H115.281C115.281 31.8021 115.708 33.1823 116.562 34.2031C117.427 35.224 118.646 35.7344 120.219 35.7344C121.292 35.7344 122.245 35.5833 123.078 35.2812C123.922 34.9792 124.583 34.6823 125.062 34.3906C125.542 34.0885 125.781 33.9375 125.781 33.9375V36.5ZM121.203 28.2656V27.5625C121.203 26.5417 121 25.6771 120.594 24.9688C120.198 24.25 119.526 23.8906 118.578 23.8906C117.797 23.8906 117.177 24.1146 116.719 24.5625C116.26 25.0104 115.932 25.5729 115.734 26.25C115.536 26.9167 115.438 27.5885 115.438 28.2656H121.203ZM139.516 27.2812H137.531L137.188 24.7188C136.729 24.1875 135.896 23.9219 134.688 23.9219C133.938 23.9219 133.349 24.0781 132.922 24.3906C132.495 24.6927 132.281 25.125 132.281 25.6875C132.281 26.3229 132.609 26.8698 133.266 27.3281C133.922 27.7865 134.672 28.2292 135.516 28.6562C136.234 29.0104 136.938 29.401 137.625 29.8281C138.323 30.2448 138.896 30.7344 139.344 31.2969C139.802 31.849 140.031 32.526 140.031 33.3281C140.031 34.5677 139.708 35.5573 139.062 36.2969C138.417 37.0365 137.594 37.5729 136.594 37.9062C135.594 38.2292 134.562 38.3906 133.5 38.3906C132.354 38.3906 131.255 38.2917 130.203 38.0938C129.161 37.8958 128.365 37.7031 127.812 37.5156V32.6562H129.828L130.203 35.5938C130.234 35.6562 130.427 35.7604 130.781 35.9062C131.135 36.0521 131.536 36.1875 131.984 36.3125C132.443 36.4375 132.844 36.5 133.188 36.5C133.917 36.5 134.479 36.3802 134.875 36.1406C135.271 35.901 135.547 35.6198 135.703 35.2969C135.859 34.974 135.938 34.6927 135.938 34.4531C135.938 33.8073 135.625 33.2865 135 32.8906C134.385 32.4844 133.594 32.0573 132.625 31.6094C131.031 30.8594 129.859 30.1406 129.109 29.4531C128.37 28.7552 128 27.8906 128 26.8594C128 25.8698 128.276 25.0104 128.828 24.2812C129.38 23.5521 130.141 22.9896 131.109 22.5938C132.078 22.1979 133.182 22 134.422 22C135.578 22 136.609 22.099 137.516 22.2969C138.432 22.4844 139.099 22.6719 139.516 22.8594V27.2812Z" fill="#1A1A1A"/>
</svg>
