<svg width="54" height="18" viewBox="0 0 54 18" fill="none" xmlns="http://www.w3.org/2000/svg">
<rect x="0.3125" y="4.8125" width="9.63636" height="10" rx="4.81818" fill="#A6A6A6"/>
<path d="M17.016 14.9716C16.3266 14.9716 15.7217 14.8075 15.2013 14.4794C14.6843 14.1513 14.2799 13.6922 13.9883 13.1023C13.6999 12.5123 13.5558 11.8229 13.5558 11.0341C13.5558 10.2386 13.6999 9.54427 13.9883 8.95099C14.2799 8.35772 14.6843 7.89702 15.2013 7.56889C15.7217 7.24077 16.3266 7.0767 17.016 7.0767C17.7054 7.0767 18.3086 7.24077 18.8256 7.56889C19.346 7.89702 19.7504 8.35772 20.0387 8.95099C20.3304 9.54427 20.4762 10.2386 20.4762 11.0341C20.4762 11.8229 20.3304 12.5123 20.0387 13.1023C19.7504 13.6922 19.346 14.1513 18.8256 14.4794C18.3086 14.8075 17.7054 14.9716 17.016 14.9716ZM17.016 13.9176C17.5397 13.9176 17.9705 13.7834 18.3086 13.5149C18.6467 13.2464 18.8969 12.8935 19.0593 12.456C19.2217 12.0185 19.3029 11.5445 19.3029 11.0341C19.3029 10.5237 19.2217 10.0481 19.0593 9.60724C18.8969 9.16643 18.6467 8.81013 18.3086 8.53835C17.9705 8.26657 17.5397 8.13068 17.016 8.13068C16.4923 8.13068 16.0614 8.26657 15.7234 8.53835C15.3853 8.81013 15.1351 9.16643 14.9727 9.60724C14.8103 10.0481 14.729 10.5237 14.729 11.0341C14.729 11.5445 14.8103 12.0185 14.9727 12.456C15.1351 12.8935 15.3853 13.2464 15.7234 13.5149C16.0614 13.7834 16.4923 13.9176 17.016 13.9176ZM25.6678 7.17614V8.17045H21.5513V7.17614H25.6678ZM22.7843 14.8125V6.12216C22.7843 5.68466 22.887 5.32008 23.0925 5.02841C23.298 4.73674 23.5648 4.51799 23.8929 4.37216C24.2211 4.22633 24.5674 4.15341 24.932 4.15341C25.2203 4.15341 25.4557 4.17661 25.638 4.22301C25.8203 4.26941 25.9561 4.3125 26.0456 4.35227L25.7076 5.36648C25.6479 5.34659 25.565 5.32173 25.459 5.2919C25.3562 5.26207 25.2203 5.24716 25.0513 5.24716C24.6635 5.24716 24.3835 5.34493 24.2111 5.54048C24.0421 5.73603 23.9576 6.02273 23.9576 6.40057V14.8125H22.7843ZM30.7127 7.17614V8.17045H26.5962V7.17614H30.7127ZM27.8292 14.8125V6.12216C27.8292 5.68466 27.9319 5.32008 28.1374 5.02841C28.3429 4.73674 28.6097 4.51799 28.9379 4.37216C29.266 4.22633 29.6123 4.15341 29.9769 4.15341C30.2653 4.15341 30.5006 4.17661 30.6829 4.22301C30.8652 4.26941 31.0011 4.3125 31.0906 4.35227L30.7525 5.36648C30.6928 5.34659 30.61 5.32173 30.5039 5.2919C30.4012 5.26207 30.2653 5.24716 30.0962 5.24716C29.7085 5.24716 29.4284 5.34493 29.256 5.54048C29.087 5.73603 29.0025 6.02273 29.0025 6.40057V14.8125H27.8292ZM33.5304 4.63068V14.8125H32.3571V4.63068H33.5304ZM35.6793 14.8125V7.17614H36.8526V14.8125H35.6793ZM36.2759 5.90341C36.0472 5.90341 35.85 5.82552 35.6843 5.66974C35.5219 5.51397 35.4407 5.3267 35.4407 5.10795C35.4407 4.8892 35.5219 4.70194 35.6843 4.54616C35.85 4.39039 36.0472 4.3125 36.2759 4.3125C36.5046 4.3125 36.7002 4.39039 36.8626 4.54616C37.0283 4.70194 37.1112 4.8892 37.1112 5.10795C37.1112 5.3267 37.0283 5.51397 36.8626 5.66974C36.7002 5.82552 36.5046 5.90341 36.2759 5.90341ZM40.1749 10.2188V14.8125H39.0016V7.17614H40.1351V8.36932H40.2346C40.4135 7.98153 40.6853 7.66998 41.0499 7.43466C41.4145 7.19602 41.8851 7.0767 42.4618 7.0767C42.9789 7.0767 43.4313 7.18277 43.8191 7.39489C44.2069 7.60369 44.5085 7.92188 44.7239 8.34943C44.9393 8.77367 45.0471 9.31061 45.0471 9.96023V14.8125H43.8738V10.0398C43.8738 9.43987 43.718 8.97254 43.4064 8.63778C43.0949 8.29972 42.6673 8.13068 42.1238 8.13068C41.7492 8.13068 41.4145 8.21188 41.1195 8.37429C40.8278 8.53669 40.5975 8.77367 40.4284 9.08523C40.2594 9.39678 40.1749 9.77462 40.1749 10.2188ZM50.3928 14.9716C49.657 14.9716 49.0223 14.8092 48.4886 14.4844C47.9583 14.1562 47.549 13.6989 47.2607 13.1122C46.9756 12.5223 46.8331 11.8362 46.8331 11.054C46.8331 10.2718 46.9756 9.58239 47.2607 8.9858C47.549 8.38589 47.95 7.91856 48.4638 7.58381C48.9808 7.24574 49.584 7.0767 50.2734 7.0767C50.6712 7.0767 51.0639 7.14299 51.4517 7.27557C51.8395 7.40814 52.1925 7.62358 52.5107 7.92188C52.8288 8.21686 53.0824 8.60795 53.2713 9.09517C53.4602 9.58239 53.5547 10.1823 53.5547 10.8949V11.392H47.6683V10.3778H52.3615C52.3615 9.94697 52.2753 9.5625 52.103 9.22443C51.9339 8.88636 51.692 8.61955 51.3771 8.42401C51.0656 8.22846 50.6977 8.13068 50.2734 8.13068C49.8061 8.13068 49.4018 8.24669 49.0604 8.47869C48.7223 8.70739 48.4621 9.00568 48.2798 9.37358C48.0975 9.74148 48.0064 10.1359 48.0064 10.5568V11.233C48.0064 11.8097 48.1058 12.2985 48.3047 12.6996C48.5069 13.0973 48.7869 13.4006 49.1449 13.6094C49.5028 13.8149 49.9188 13.9176 50.3928 13.9176C50.701 13.9176 50.9794 13.8745 51.228 13.7884C51.4799 13.6989 51.697 13.5663 51.8793 13.3906C52.0616 13.2116 52.2024 12.9896 52.3018 12.7244L53.4354 13.0426C53.3161 13.4271 53.1155 13.7652 52.8338 14.0568C52.5521 14.3452 52.2041 14.5705 51.7898 14.733C51.3755 14.892 50.9098 14.9716 50.3928 14.9716Z" fill="#A6A6A6"/>
</svg>
