<svg width="54" height="18" viewBox="0 0 54 18" fill="none" xmlns="http://www.w3.org/2000/svg">
<rect x="0.3125" y="4.8125" width="10" height="10" rx="5" fill="#11EA20"/>
<path d="M17.4886 14.9716C16.7992 14.9716 16.1944 14.8075 15.674 14.4794C15.157 14.1513 14.7526 13.6922 14.4609 13.1023C14.1726 12.5123 14.0284 11.8229 14.0284 11.0341C14.0284 10.2386 14.1726 9.54427 14.4609 8.95099C14.7526 8.35772 15.157 7.89702 15.674 7.56889C16.1944 7.24077 16.7992 7.0767 17.4886 7.0767C18.178 7.0767 18.7813 7.24077 19.2983 7.56889C19.8187 7.89702 20.223 8.35772 20.5114 8.95099C20.803 9.54427 20.9489 10.2386 20.9489 11.0341C20.9489 11.8229 20.803 12.5123 20.5114 13.1023C20.223 13.6922 19.8187 14.1513 19.2983 14.4794C18.7813 14.8075 18.178 14.9716 17.4886 14.9716ZM17.4886 13.9176C18.0123 13.9176 18.4432 13.7834 18.7812 13.5149C19.1193 13.2464 19.3696 12.8935 19.532 12.456C19.6944 12.0185 19.7756 11.5445 19.7756 11.0341C19.7756 10.5237 19.6944 10.0481 19.532 9.60724C19.3696 9.16643 19.1193 8.81013 18.7812 8.53835C18.4432 8.26657 18.0123 8.13068 17.4886 8.13068C16.965 8.13068 16.5341 8.26657 16.196 8.53835C15.858 8.81013 15.6077 9.16643 15.4453 9.60724C15.2829 10.0481 15.2017 10.5237 15.2017 11.0341C15.2017 11.5445 15.2829 12.0185 15.4453 12.456C15.6077 12.8935 15.858 13.2464 16.196 13.5149C16.5341 13.7834 16.965 13.9176 17.4886 13.9176ZM23.9132 10.2188V14.8125H22.7399V7.17614H23.8734V8.36932H23.9728C24.1518 7.98153 24.4236 7.66998 24.7882 7.43466C25.1528 7.19602 25.6234 7.0767 26.2001 7.0767C26.7172 7.0767 27.1696 7.18277 27.5574 7.39489C27.9451 7.60369 28.2467 7.92188 28.4622 8.34943C28.6776 8.77367 28.7853 9.31061 28.7853 9.96023V14.8125H27.612V10.0398C27.612 9.43987 27.4563 8.97254 27.1447 8.63778C26.8332 8.29972 26.4056 8.13068 25.862 8.13068C25.4875 8.13068 25.1528 8.21188 24.8578 8.37429C24.5661 8.53669 24.3358 8.77367 24.1667 9.08523C23.9977 9.39678 23.9132 9.77462 23.9132 10.2188ZM32.1026 4.63068V14.8125H30.9293V4.63068H32.1026ZM34.2516 14.8125V7.17614H35.4249V14.8125H34.2516ZM34.8482 5.90341C34.6195 5.90341 34.4223 5.82552 34.2566 5.66974C34.0942 5.51397 34.013 5.3267 34.013 5.10795C34.013 4.8892 34.0942 4.70194 34.2566 4.54616C34.4223 4.39039 34.6195 4.3125 34.8482 4.3125C35.0769 4.3125 35.2724 4.39039 35.4348 4.54616C35.6006 4.70194 35.6834 4.8892 35.6834 5.10795C35.6834 5.3267 35.6006 5.51397 35.4348 5.66974C35.2724 5.82552 35.0769 5.90341 34.8482 5.90341ZM38.7472 10.2188V14.8125H37.5739V7.17614H38.7074V8.36932H38.8068C38.9858 7.98153 39.2576 7.66998 39.6222 7.43466C39.9867 7.19602 40.4574 7.0767 41.0341 7.0767C41.5511 7.0767 42.0036 7.18277 42.3913 7.39489C42.7791 7.60369 43.0807 7.92188 43.2962 8.34943C43.5116 8.77367 43.6193 9.31061 43.6193 9.96023V14.8125H42.446V10.0398C42.446 9.43987 42.2902 8.97254 41.9787 8.63778C41.6671 8.29972 41.2396 8.13068 40.696 8.13068C40.3215 8.13068 39.9867 8.21188 39.6918 8.37429C39.4001 8.53669 39.1697 8.77367 39.0007 9.08523C38.8317 9.39678 38.7472 9.77462 38.7472 10.2188ZM48.965 14.9716C48.2292 14.9716 47.5945 14.8092 47.0609 14.4844C46.5306 14.1562 46.1213 13.6989 45.8329 13.1122C45.5479 12.5223 45.4054 11.8362 45.4054 11.054C45.4054 10.2718 45.5479 9.58239 45.8329 8.9858C46.1213 8.38589 46.5223 7.91856 47.036 7.58381C47.5531 7.24574 48.1563 7.0767 48.8457 7.0767C49.2434 7.0767 49.6362 7.14299 50.024 7.27557C50.4118 7.40814 50.7647 7.62358 51.0829 7.92188C51.4011 8.21686 51.6547 8.60795 51.8436 9.09517C52.0325 9.58239 52.127 10.1823 52.127 10.8949V11.392H46.2406V10.3778H50.9338C50.9338 9.94697 50.8476 9.5625 50.6752 9.22443C50.5062 8.88636 50.2643 8.61955 49.9494 8.42401C49.6378 8.22846 49.2699 8.13068 48.8457 8.13068C48.3784 8.13068 47.974 8.24669 47.6326 8.47869C47.2946 8.70739 47.0344 9.00568 46.8521 9.37358C46.6698 9.74148 46.5787 10.1359 46.5787 10.5568V11.233C46.5787 11.8097 46.6781 12.2985 46.877 12.6996C47.0791 13.0973 47.3592 13.4006 47.7172 13.6094C48.0751 13.8149 48.4911 13.9176 48.965 13.9176C49.2733 13.9176 49.5517 13.8745 49.8002 13.7884C50.0521 13.6989 50.2692 13.5663 50.4515 13.3906C50.6338 13.2116 50.7747 12.9896 50.8741 12.7244L52.0076 13.0426C51.8883 13.4271 51.6878 13.7652 51.4061 14.0568C51.1243 14.3452 50.7763 14.5705 50.362 14.733C49.9477 14.892 49.4821 14.9716 48.965 14.9716Z" fill="#11EA20"/>
</svg>
