<svg width="10" height="11" viewBox="0 0 10 11" fill="none" xmlns="http://www.w3.org/2000/svg">
<path id="Vector" d="M3.99986 0.409458C4.06477 0.483888 4.10453 0.574865 4.11403 0.670703C4.12353 0.766541 4.10235 0.862862 4.05319 0.947292C3.66756 1.61259 3.46627 2.35848 3.46788 3.11618C3.46788 5.63673 5.65313 7.67774 8.34637 7.67774C8.69836 7.67732 9.03902 7.64389 9.36834 7.57744C9.46908 7.55718 9.57394 7.56514 9.66991 7.60035C9.76589 7.63556 9.84878 7.69646 9.90832 7.77553C9.9713 7.8578 10.0034 7.95742 9.99971 8.05873C9.99597 8.16005 9.95655 8.25733 9.88765 8.3353C9.36476 8.93919 8.70515 9.42576 7.95691 9.75955C7.20867 10.0933 6.39065 10.2659 5.56247 10.2647C2.48925 10.2647 0 7.93662 0 5.06818C0 2.90932 1.40928 1.05762 3.41588 0.272806C3.5158 0.232876 3.62683 0.224613 3.73218 0.249267C3.83754 0.27392 3.9315 0.33015 3.99986 0.409458Z" fill="#EF4056"/>
</svg>
