<svg width="18" height="21" viewBox="0 0 18 21" fill="none" xmlns="http://www.w3.org/2000/svg">
<path id="Down Arrow" fill-rule="evenodd" clip-rule="evenodd" d="M9 20.0229C8.65907 20.0229 8.3321 19.8911 8.09103 19.6565C7.84995 19.4218 7.71452 19.1035 7.71452 18.7717L7.71452 4.27425L2.19723 9.64727C2.07771 9.76361 1.93582 9.8559 1.77966 9.91886C1.6235 9.98182 1.45613 10.0142 1.28711 10.0142C1.11808 10.0142 0.950711 9.98182 0.794552 9.91886C0.638393 9.8559 0.496504 9.76361 0.376985 9.64727C0.257466 9.53093 0.162659 9.39282 0.0979754 9.24081C0.0332923 9.08881 1.45405e-06 8.92589 1.46843e-06 8.76136C1.48282e-06 8.59683 0.0332924 8.43392 0.0979755 8.28191C0.162659 8.12991 0.257466 7.99179 0.376985 7.87545L8.08988 0.367728C8.20929 0.2512 8.35115 0.158749 8.50732 0.0956681C8.66349 0.0325871 8.83092 0.000116584 9 0.000116599C9.16909 0.000116614 9.33651 0.0325872 9.49268 0.0956682C9.64886 0.158749 9.79071 0.251201 9.91012 0.367729L17.623 7.87545C17.7425 7.99179 17.8373 8.12991 17.902 8.28191C17.9667 8.43392 18 8.59684 18 8.76136C18 8.92589 17.9667 9.08881 17.902 9.24082C17.8373 9.39282 17.7425 9.53094 17.623 9.64728C17.3816 9.88223 17.0543 10.0142 16.7129 10.0142C16.5439 10.0142 16.3765 9.98183 16.2203 9.91886C16.0642 9.8559 15.9223 9.76362 15.8028 9.64728L10.2855 4.27425L10.2855 18.7717C10.2855 19.1035 10.15 19.4218 9.90897 19.6565C9.6679 19.8911 9.34093 20.0229 9 20.0229Z" fill="#008078"/>
</svg>
