<svg width="51" height="51" viewBox="0 0 51 51" fill="none" xmlns="http://www.w3.org/2000/svg">
<g id="ExclamationCircle" clip-path="url(#clip0_2929_9149)">
<path id="Vector" d="M25.5 47.8125C19.5824 47.8125 13.9071 45.4617 9.72268 41.2773C5.53827 37.0929 3.1875 31.4176 3.1875 25.5C3.1875 19.5824 5.53827 13.9071 9.72268 9.72268C13.9071 5.53827 19.5824 3.1875 25.5 3.1875C31.4176 3.1875 37.0929 5.53827 41.2773 9.72268C45.4617 13.9071 47.8125 19.5824 47.8125 25.5C47.8125 31.4176 45.4617 37.0929 41.2773 41.2773C37.0929 45.4617 31.4176 47.8125 25.5 47.8125ZM25.5 51C32.263 51 38.749 48.3134 43.5312 43.5312C48.3134 38.749 51 32.263 51 25.5C51 18.737 48.3134 12.251 43.5312 7.46878C38.749 2.6866 32.263 0 25.5 0C18.737 0 12.251 2.6866 7.46878 7.46878C2.6866 12.251 0 18.737 0 25.5C0 32.263 2.6866 38.749 7.46878 43.5312C12.251 48.3134 18.737 51 25.5 51Z" fill="#1A1A1A"/>
<path id="Vector_2" d="M22.3193 35.0625C22.3193 34.6439 22.4018 34.2294 22.562 33.8427C22.7222 33.456 22.9569 33.1046 23.2529 32.8086C23.5489 32.5126 23.9003 32.2778 24.287 32.1176C24.6738 31.9575 25.0882 31.875 25.5068 31.875C25.9254 31.875 26.3399 31.9575 26.7266 32.1176C27.1134 32.2778 27.4648 32.5126 27.7607 32.8086C28.0567 33.1046 28.2915 33.456 28.4517 33.8427C28.6119 34.2294 28.6943 34.6439 28.6943 35.0625C28.6943 35.9079 28.3585 36.7186 27.7607 37.3164C27.163 37.9142 26.3522 38.25 25.5068 38.25C24.6615 38.25 23.8507 37.9142 23.2529 37.3164C22.6552 36.7186 22.3193 35.9079 22.3193 35.0625ZM22.6317 15.9216C22.5893 15.5194 22.6318 15.1129 22.7567 14.7283C22.8815 14.3436 23.0858 13.9896 23.3563 13.689C23.6268 13.3884 23.9575 13.1481 24.3269 12.9836C24.6962 12.8191 25.0961 12.7341 25.5005 12.7341C25.9048 12.7341 26.3047 12.8191 26.6741 12.9836C27.0435 13.1481 27.3741 13.3884 27.6446 13.689C27.9151 13.9896 28.1194 14.3436 28.2443 14.7283C28.3691 15.1129 28.4117 15.5194 28.3692 15.9216L27.2536 27.1001C27.2161 27.5393 27.0152 27.9484 26.6905 28.2465C26.3659 28.5446 25.9412 28.71 25.5005 28.71C25.0597 28.71 24.635 28.5446 24.3104 28.2465C23.9858 27.9484 23.7848 27.5393 23.7473 27.1001L22.6317 15.9216Z" fill="#1A1A1A"/>
</g>
<defs>
<clipPath id="clip0_2929_9149">
<rect width="51" height="51" fill="white"/>
</clipPath>
</defs>
</svg>
